<svg width="25" height="27" viewBox="0 0 25 27" fill="none" xmlns="http://www.w3.org/2000/svg">
<path opacity="0.35" d="M19.7917 5.73461H18.4896C17.6698 5.73461 16.898 5.32717 16.4063 4.63342C15.9146 3.93967 15.1427 3.53223 14.323 3.53223H10.6771C9.85733 3.53223 9.08546 3.93967 8.59379 4.63342C8.10212 5.32717 7.33025 5.73461 6.51046 5.73461H5.20837C3.48233 5.73461 2.08337 7.21351 2.08337 9.03818V20.0501C2.08337 21.8748 3.48233 23.3537 5.20837 23.3537H19.7917C21.5177 23.3537 22.9167 21.8748 22.9167 20.0501V9.03818C22.9167 7.21351 21.5177 5.73461 19.7917 5.73461Z" fill="#FF5A5A"/>
<path d="M12.5 20.05C15.3764 20.05 17.7083 17.5849 17.7083 14.544C17.7083 11.5032 15.3764 9.03809 12.5 9.03809C9.62348 9.03809 7.29163 11.5032 7.29163 14.544C7.29163 17.5849 9.62348 20.05 12.5 20.05Z" fill="#FF5A5A"/>
<path d="M19.7917 10.1394C20.367 10.1394 20.8333 9.64637 20.8333 9.0382C20.8333 8.43003 20.367 7.93701 19.7917 7.93701C19.2164 7.93701 18.75 8.43003 18.75 9.0382C18.75 9.64637 19.2164 10.1394 19.7917 10.1394Z" fill="#FF5A5A"/>
</svg>
