<svg width="30" height="30" viewBox="0 0 30 30" fill="none" xmlns="http://www.w3.org/2000/svg">
<path d="M24.0625 13.125C24.9254 13.125 25.625 12.2855 25.625 11.25C25.625 10.2145 24.9254 9.375 24.0625 9.375C23.1996 9.375 22.5 10.2145 22.5 11.25C22.5 12.2855 23.1996 13.125 24.0625 13.125Z" fill="#212121"/>
<path d="M24.3749 11.25C24.7201 11.25 24.9999 10.9702 24.9999 10.625C24.9999 10.2798 24.7201 10 24.3749 10C24.0297 10 23.7499 10.2798 23.7499 10.625C23.7499 10.9702 24.0297 11.25 24.3749 11.25Z" fill="#424242"/>
<path d="M13.4376 11.875C14.3006 11.875 15.0001 11.0355 15.0001 10C15.0001 8.96447 14.3006 8.125 13.4376 8.125C12.5747 8.125 11.8751 8.96447 11.8751 10C11.8751 11.0355 12.5747 11.875 13.4376 11.875Z" fill="#212121"/>
<path d="M13.6719 10.6244C13.6719 9.58938 12.8325 8.75 11.7975 8.75C11.5213 8.75 11.2613 8.81312 11.025 8.92062C10.8213 8.10562 10.09 7.5 9.21188 7.5C8.32313 7.5 7.5825 8.12063 7.39 8.95062C7.13938 8.82625 6.86063 8.75 6.56188 8.75C5.52687 8.75 4.6875 9.58938 4.6875 10.6244C4.6875 11.1725 4.92688 11.6613 5.3025 12.0044C5.2825 12.1413 5.26937 12.2794 5.26937 12.42C5.26937 14.2762 7.03438 15.7812 9.21188 15.7812C11.3894 15.7812 13.1544 14.2762 13.1544 12.42C13.1544 12.2625 13.1375 12.1094 13.1125 11.9575C13.4575 11.6181 13.6719 11.1463 13.6719 10.6244Z" fill="#AED581"/>
<path d="M23.0469 10.6244C23.0469 9.58938 22.2075 8.75 21.1725 8.75C20.8962 8.75 20.6362 8.81312 20.4 8.92062C20.1962 8.10562 19.465 7.5 18.5869 7.5C17.6981 7.5 16.9575 8.12063 16.765 8.95062C16.5144 8.82625 16.2356 8.75 15.9369 8.75C14.9019 8.75 14.0625 9.58938 14.0625 10.6244C14.0625 11.1725 14.3019 11.6613 14.6775 12.0044C14.6575 12.1413 14.6444 12.2794 14.6444 12.42C14.6444 14.2762 16.4094 15.7812 18.5869 15.7812C20.7644 15.7812 22.5294 14.2762 22.5294 12.42C22.5294 12.2625 22.5125 12.1094 22.4875 11.9575C22.8325 11.6181 23.0469 11.1463 23.0469 10.6244Z" fill="#689F38"/>
<path d="M23.1625 14.8037L20.5925 13.6874C20.3525 13.583 20.2425 13.3037 20.3469 13.0637L21.2144 11.0668C21.3188 10.8268 21.5982 10.7168 21.8382 10.8212L24.4082 11.9374C24.6482 12.0418 24.7582 12.3212 24.6538 12.5612L23.7863 14.558C23.6819 14.798 23.4026 14.908 23.1625 14.8037Z" fill="#FFF3E0"/>
<path d="M11.9369 12.3575L9.42998 13.5775C9.19123 13.6938 8.90311 13.5944 8.78686 13.3556L7.84061 11.4113C7.72436 11.1725 7.82373 10.8844 8.06248 10.7681L10.5694 9.54813C10.8081 9.43188 11.0962 9.53125 11.2125 9.77L12.1587 11.7144C12.2756 11.9531 12.1762 12.2413 11.9369 12.3575Z" fill="#FFF3E0"/>
<path d="M15.2518 16.9383C16.7481 19.6602 20.1687 20.6545 22.8906 19.1583C25.6125 17.662 26.6068 14.2414 25.1106 11.5195L15.2518 16.9383Z" fill="#BF360C"/>
<path d="M16.3475 16.3355C17.5125 18.4548 20.1694 19.2273 22.2888 18.0623C24.4082 16.8973 25.1807 14.2405 24.0157 12.1211L16.3475 16.3355Z" fill="#FF3D00"/>
<path d="M18.5381 15.1319C19.0381 16.0413 20.175 16.3719 21.0843 15.8719C21.9937 15.3719 22.3243 14.2351 21.8243 13.3257L18.5381 15.1319Z" fill="#FF7043"/>
<path d="M22.2615 17.3633C22.4127 17.2802 22.4005 16.9676 22.2343 16.6651C22.068 16.3626 21.8106 16.1848 21.6594 16.2679C21.5081 16.3511 21.5203 16.6637 21.6866 16.9662C21.8528 17.2687 22.1102 17.4465 22.2615 17.3633Z" fill="#FFB74D"/>
<path d="M20.0268 17.7961C20.1994 17.7934 20.3348 17.5114 20.3293 17.1663C20.3238 16.8211 20.1795 16.5436 20.0069 16.5463C19.8344 16.549 19.6989 16.8311 19.7044 17.1762C19.7099 17.5213 19.8542 17.7989 20.0268 17.7961Z" fill="#FFB74D"/>
<path d="M23.6835 15.7878C23.7783 15.6436 23.6213 15.373 23.3329 15.1834C23.0444 14.9937 22.7337 14.957 22.6389 15.1012C22.5441 15.2454 22.7011 15.516 22.9896 15.7056C23.278 15.8952 23.5887 15.932 23.6835 15.7878Z" fill="#FFB74D"/>
<path d="M23.7317 14.0585C23.7354 13.886 23.4585 13.7402 23.1134 13.733C22.7683 13.7257 22.4856 13.8597 22.482 14.0323C22.4784 14.2048 22.7552 14.3506 23.1003 14.3578C23.4454 14.3651 23.7281 14.2311 23.7317 14.0585Z" fill="#FFB74D"/>
<path d="M10.4487 11.794C12.6543 9.20214 18.1243 9.36589 19.375 9.38276C19.2762 11.5034 19.6187 16.1221 17.1131 18.3665C15.3193 19.9496 13.255 19.7728 12.0562 16.8315C9.50121 16.5184 8.91121 13.6465 10.4487 11.794Z" fill="#8BC34A"/>
<path d="M7.7876 19.3863C7.7876 19.3863 7.9926 19.3095 8.3776 19.2126C8.59822 19.177 8.70572 19.0895 8.89572 18.972C9.0601 18.9107 9.29072 18.7776 9.5476 18.5876C9.6551 18.5007 9.80447 18.3982 9.91197 18.3107C10.0195 18.2238 10.1688 18.1213 10.302 17.9776C10.5432 17.747 10.8101 17.4601 11.077 17.1726C11.3438 16.8857 11.5957 16.5576 11.847 16.2295C12.0988 15.9013 12.3913 15.5576 12.6838 15.2145C12.9763 14.8707 13.2688 14.5276 13.577 14.2251C13.8851 13.9226 14.1776 13.5795 14.5007 13.3176C14.8088 13.0151 15.1476 12.7951 15.4451 12.5901C15.7426 12.3851 16.097 12.2057 16.3688 12.057C16.682 11.8932 16.9282 11.8007 17.2157 11.6932C17.4463 11.5601 17.6826 11.5651 17.8876 11.4882C18.2726 11.3907 18.4776 11.3145 18.4776 11.3145C18.4776 11.3145 18.2726 11.3913 17.9182 11.5707C17.7538 11.632 17.5076 11.7245 17.3176 11.842C17.087 11.9751 16.8145 12.1238 16.5582 12.3132C16.3013 12.5026 16.0038 12.7076 15.722 12.9538C15.4401 13.2001 15.1576 13.4457 14.9057 13.7738C14.6388 14.0607 14.387 14.3888 14.1357 14.717C13.8838 15.0451 13.6482 15.4145 13.412 15.7832C13.1757 16.1526 12.9395 16.5213 12.7445 16.8751C12.5082 17.2445 12.3132 17.5982 12.077 17.967C11.8407 18.3363 11.5895 18.6645 11.322 18.9513C11.1882 19.0951 11.0551 19.2382 10.9213 19.382C10.7876 19.5257 10.6545 19.6688 10.5057 19.7713C10.2232 20.0176 9.98197 20.2482 9.7101 20.3963C9.45322 20.5857 9.18135 20.7345 9.0176 20.7957C8.60697 20.9495 8.40197 21.0263 8.40197 21.0263L7.7876 19.3863Z" fill="#DCEDC8"/>
<path d="M15.3688 16.5913L12.5332 15.7919C12.3195 15.7319 12.1951 15.51 12.2557 15.2963L12.8857 13.0619C12.9457 12.8481 13.1676 12.7238 13.3813 12.7844L16.217 13.5838C16.4307 13.6438 16.5551 13.8656 16.4945 14.0794L15.8645 16.3138C15.8045 16.5269 15.5826 16.6513 15.3688 16.5913Z" fill="#FFF3E0"/>
<path d="M19.6874 16.25C20.5503 16.25 21.2499 15.4105 21.2499 14.375C21.2499 13.3395 20.5503 12.5 19.6874 12.5C18.8244 12.5 18.1249 13.3395 18.1249 14.375C18.1249 15.4105 18.8244 16.25 19.6874 16.25Z" fill="#212121"/>
<path d="M20.0001 14.375C20.3453 14.375 20.6251 14.0952 20.6251 13.75C20.6251 13.4048 20.3453 13.125 20.0001 13.125C19.6549 13.125 19.3751 13.4048 19.3751 13.75C19.3751 14.0952 19.6549 14.375 20.0001 14.375Z" fill="#424242"/>
<path d="M7.81262 13.75C8.67557 13.75 9.37512 12.9105 9.37512 11.875C9.37512 10.8395 8.67557 10 7.81262 10C6.94968 10 6.25012 10.8395 6.25012 11.875C6.25012 12.9105 6.94968 13.75 7.81262 13.75Z" fill="#212121"/>
<path d="M8.125 11.875C8.47018 11.875 8.75 11.5952 8.75 11.25C8.75 10.9048 8.47018 10.625 8.125 10.625C7.77982 10.625 7.5 10.9048 7.5 11.25C7.5 11.5952 7.77982 11.875 8.125 11.875Z" fill="#424242"/>
<path d="M13.9326 15.6879C12.4363 18.4098 9.01569 19.4042 6.29381 17.9079C3.57194 16.4117 2.57756 12.9911 4.07319 10.2686L13.9326 15.6879Z" fill="#BF360C"/>
<path d="M12.837 15.0855C11.672 17.2048 9.01511 17.9773 6.89574 16.8123C4.77636 15.6473 4.00386 12.9905 5.16886 10.8711L12.837 15.0855Z" fill="#FF3D00"/>
<path d="M10.6463 13.8819C10.1463 14.7913 9.00945 15.1219 8.10007 14.6219C7.1907 14.1219 6.86007 12.9851 7.36007 12.0757L10.6463 13.8819Z" fill="#FF7043"/>
<path d="M7.49721 15.7182C7.66349 15.4157 7.67567 15.1031 7.52443 15.02C7.37318 14.9368 7.11578 15.1146 6.9495 15.4171C6.78323 15.7196 6.77105 16.0322 6.92229 16.1154C7.07354 16.1985 7.33094 16.0207 7.49721 15.7182Z" fill="#FFB74D"/>
<path d="M9.48068 15.9265C9.48617 15.5814 9.35073 15.2994 9.17816 15.2966C9.00559 15.2939 8.86125 15.5714 8.85576 15.9166C8.85027 16.2617 8.98572 16.5437 9.15829 16.5465C9.33085 16.5492 9.4752 16.2717 9.48068 15.9265Z" fill="#FFB74D"/>
<path d="M11.1895 15.9624C11.3371 15.873 11.3118 15.5611 11.1329 15.2659C10.9541 14.9707 10.6894 14.8038 10.5418 14.8933C10.3942 14.9827 10.4195 15.2945 10.5984 15.5897C10.7772 15.885 11.0419 16.0518 11.1895 15.9624Z" fill="#FFB74D"/>
<path d="M6.19469 14.4533C6.48312 14.2637 6.64008 13.9931 6.54527 13.8489C6.45046 13.7046 6.13978 13.7415 5.85135 13.9311C5.56292 14.1207 5.40596 14.3913 5.50077 14.5355C5.59558 14.6798 5.90626 14.6429 6.19469 14.4533Z" fill="#FFB74D"/>
<path d="M6.08366 13.1094C6.42877 13.1025 6.70574 12.9571 6.70229 12.7845C6.69884 12.612 6.41627 12.4777 6.07116 12.4846C5.72606 12.4915 5.44909 12.637 5.45254 12.8095C5.45599 12.9821 5.73856 13.1163 6.08366 13.1094Z" fill="#FFB74D"/>
<path d="M11.25 22.5H18.75V25H11.25V22.5Z" fill="#006B6B"/>
<path d="M3.75 15.625C3.75 20.5625 6.9375 22.1875 11.3125 23.75H18.6875C23.0625 22.25 26.25 20.5625 26.25 15.625H3.75Z" fill="#00BCD4"/>
<path d="M25.6875 18.75C26.0625 17.875 26.25 16.875 26.25 15.625H3.75C3.75 16.875 3.9375 17.875 4.3125 18.75H25.6875Z" fill="#006B6B"/>
</svg>
