<svg width="30" height="30" viewBox="0 0 30 30" fill="none" xmlns="http://www.w3.org/2000/svg">
<path d="M18.7501 3.75C18.7501 4.4375 18.1876 5 17.5001 5C16.8126 5 16.2501 4.4375 16.2501 3.75C16.2501 3.0625 16.8126 2.5 17.5001 2.5C18.1876 2.5 18.7501 3.0625 18.7501 3.75Z" fill="#8BC34A"/>
<path d="M15.6251 8.125H14.3751C14.3751 3.125 17.1251 2.625 17.2501 2.5625L17.5001 5C17.3751 5.0625 15.6251 4.8125 15.6251 8.125Z" fill="#8BC34A"/>
<path d="M11.8751 27.5C11.0001 27.5 10.1251 27.125 9.50012 26.4375C5.12512 21.3125 5.00012 12.8125 5.00012 11.875C5.00012 10.125 6.37512 8.75 8.12512 8.75C9.87512 8.75 11.2501 10.125 11.2501 11.875C11.2501 13.8125 11.8126 19.5 14.2501 22.375C15.3751 23.6875 15.2501 25.6875 13.9376 26.8125C13.3126 27.25 12.6251 27.5 11.8751 27.5Z" fill="#FF3D00"/>
<path d="M18.1248 27.5C17.4998 27.5 16.9373 27.3125 16.3748 27C14.9373 26.0625 14.5623 24.125 15.4998 22.6875C18.6248 17.9375 18.7498 11.9375 18.7498 11.875C18.7498 10.125 20.1873 8.75 21.8748 8.75C23.6248 8.75 24.9998 10.125 24.9998 11.875C24.9998 12.1875 24.9373 19.75 20.7498 26.125C20.1248 27 19.1248 27.5 18.1248 27.5Z" fill="#FF3D00"/>
<path d="M21.1874 9.6875C20.9999 8.0625 19.5624 6.9375 17.9374 6.875C17.8749 6.875 17.7499 6.875 17.6874 6.875C17.6249 6.875 17.6249 6.875 17.5624 6.875H17.4999C17.3124 6.875 17.1249 6.9375 16.9374 7C16.9374 7 16.9374 7 16.8749 7C16.0624 7.1875 15.3124 7.5 14.9374 7.5C14.4374 7.5 13.4999 7 12.3749 6.875C12.3749 6.875 12.3749 6.875 12.3124 6.875C12.1874 6.875 12.1249 6.875 11.9999 6.875C10.3749 6.875 8.93741 8.0625 8.74991 9.625C8.74991 9.875 8.06241 16.0625 10.8749 23.5625C11.1249 24.25 11.6874 25.25 12.3124 25.9375C12.8749 26.875 13.8749 27.5 14.9999 27.5C16.1874 27.5 17.1874 26.8125 17.6874 25.875C18.2499 25.1875 18.7499 24.25 18.9999 23.625C21.8124 16.125 21.1874 9.9375 21.1874 9.6875Z" fill="#FF3D00"/>
<path d="M22.2501 8.75C22.1251 8.75 21.9376 8.6875 21.8126 8.6875C21.5001 8.6875 21.2501 8.75 21.0001 8.8125C21.1251 9.0625 21.1876 9.3125 21.2501 9.625C21.2501 9.875 21.8751 16.0625 19.0626 23.5C18.8126 24.1875 18.3126 25.0625 17.7501 25.75C17.6251 26.0625 17.4376 26.3125 17.1876 26.5C22.4376 24.5625 23.0001 11.75 22.2501 8.75ZM12.4376 25.9375C11.8126 25.25 11.2501 24.25 11.0001 23.5625C8.18759 16.0625 8.81259 9.9375 8.87509 9.625C8.93759 9.375 9.00009 9.125 9.06259 8.875C8.75009 8.8125 8.37509 8.75 8.12509 8.75C8.00009 8.75 7.81259 8.75 7.68759 8.8125C6.87509 11.8125 7.50009 24.9375 13.0001 26.6875C12.7501 26.5 12.5626 26.25 12.4376 25.9375Z" fill="#DD2C00"/>
<path d="M10.6249 11.25C10.2499 11.25 9.99988 11 9.99988 10.625C9.99988 9.75 10.8124 8.125 11.8749 8.125C12.2499 8.125 12.4999 8.375 12.4999 8.75C12.4999 9.0625 12.2499 9.375 11.8749 9.375C11.6249 9.5 11.2499 10.25 11.2499 10.625C11.2499 10.9375 10.9999 11.25 10.6249 11.25ZM11.8749 21.25C11.6249 21.25 11.4374 21.125 11.3124 20.875C9.99988 18.3125 9.99988 13.9375 9.99988 13.75C9.99988 13.375 10.2499 13.125 10.6249 13.125C10.9999 13.125 11.2499 13.375 11.2499 13.75C11.2499 13.8125 11.2499 18 12.4374 20.375C12.5624 20.6875 12.4374 21.0625 12.1874 21.1875C12.0624 21.25 11.9999 21.25 11.8749 21.25Z" fill="#FF9E80"/>
</svg>
