<svg width="32" height="32" viewBox="0 0 32 32" fill="none" xmlns="http://www.w3.org/2000/svg">
<path d="M11.9749 15.7535L20.3615 11.8828C19.3815 10.9628 18.7575 9.68284 18.6909 8.24951L10.3042 12.1202C11.2855 13.0375 11.9082 14.3188 11.9749 15.7535Z" fill="#FF5A5A"/>
<path d="M20.3625 20.1187L11.9758 16.248C11.9092 17.6814 11.2852 18.9627 10.3052 19.8827L18.6918 23.7534C18.7585 22.3187 19.3812 21.0374 20.3625 20.1187Z" fill="#FF5A5A"/>
<path opacity="0.35" d="M6.66683 10.6665C3.7215 10.6665 1.3335 13.0545 1.3335 15.9998C1.3335 18.9452 3.7215 21.3332 6.66683 21.3332C9.61216 21.3332 12.0002 18.9452 12.0002 15.9998C12.0002 13.0545 9.61216 10.6665 6.66683 10.6665Z" fill="#FF5A5A"/>
<path opacity="0.35" d="M23.9998 2.6665C21.0545 2.6665 18.6665 5.0545 18.6665 7.99984C18.6665 10.9452 21.0545 13.3332 23.9998 13.3332C26.9452 13.3332 29.3332 10.9452 29.3332 7.99984C29.3332 5.0545 26.9452 2.6665 23.9998 2.6665Z" fill="#FF5A5A"/>
<path opacity="0.35" d="M23.9998 18.6665C21.0545 18.6665 18.6665 21.0545 18.6665 23.9998C18.6665 26.9452 21.0545 29.3332 23.9998 29.3332C26.9452 29.3332 29.3332 26.9452 29.3332 23.9998C29.3332 21.0545 26.9452 18.6665 23.9998 18.6665Z" fill="#FF5A5A"/>
</svg>
