<svg width="32" height="32" viewBox="0 0 32 32" fill="none" xmlns="http://www.w3.org/2000/svg">
<path opacity="0.35" d="M26.4935 9.22C25.8162 6.17067 23.1108 4 19.9855 4H10.6668C7.7215 4 5.3335 6.388 5.3335 9.33333V18.6667C5.3335 20.056 6.04283 21.2773 7.11883 21.9947L10.9308 29.6333C11.3908 30.5547 12.5108 30.9293 13.4335 30.4693C15.5428 29.4173 16.5268 26.9493 15.7215 24.7333L14.9682 22.6667H24.0002C26.2095 22.6667 28.0002 20.876 28.0002 18.6667V16L26.4935 9.22Z" fill="#FF5A5A"/>
<path d="M8 6C8 6.51467 8 20.152 8 20.6667C8 21.7707 7.104 22.6667 6 22.6667C4.896 22.6667 4 21.7707 4 20.6667C4 20.152 4 6.51467 4 6C4 4.896 4.896 4 6 4C7.104 4 8 4.896 8 6Z" fill="#FF5A5A"/>
</svg>
